{"title":"[MARATHI] Ganesh Katha ESubs - Animation - Kids [TMB]","uid":8104819,"size":246422290,"categoryP":"video","categoryS":"other","magnet":"?xt=urn:btih:dfac44cf9ec189cdd0154f434e75a79bfd728cce&amp;dn=%5BMARATHI%5D+Ganesh+Katha+ESubs+-+Animation+-+Kids+%5BTMB%5D&amp;tr=udp%3A%2F%2Ftracker.openbittorrent.com%3A80&amp;tr=udp%3A%2F%2Fopen.demonii.com%3A1337&amp;tr=udp%3A%2F%2Ftracker.coppersurfer.tk%3A6969&amp;tr=udp%3A%2F%2Fexodus.desync.com%3A6969","seeders":1,"leechers":0,"uploader":"SJonam","files":1,"time":1360060157,"description":" &lt;a href=&quot;http://i26.photobucket.com/albums/c119/manojb/good.gif&quot; rel=&quot;nofollow&quot; target=&quot;_NEW&quot;&gt;http://i26.photobucket.com/albums/c119/manojb/good.gif&lt;/a&gt; &lt;a href=&quot;\nhttp://i26.photobucket.com/albums/c119/manojb/vlcsnap-2013-02-05-14h45m35s44.png&quot; rel=&quot;nofollow&quot; target=&quot;_NEW&quot;&gt;\nhttp://i26.photobucket.com/albums/c119/manojb/vlcsnap-2013-02-05-14h45m35s44.png&lt;/a&gt; &lt;a href=&quot;\nhttp://i26.photobucket.com/albums/c119/manojb/vlcsnap-2013-02-05-14h45m43s133.png&quot; rel=&quot;nofollow&quot; target=&quot;_NEW&quot;&gt;\nhttp://i26.photobucket.com/albums/c119/manojb/vlcsnap-2013-02-05-14h45m43s133.png&lt;/a&gt; &lt;a href=&quot;\nhttp://i26.photobucket.com/albums/c119/manojb/vlcsnap-2013-02-05-14h46m29s72.png&quot; rel=&quot;nofollow&quot; target=&quot;_NEW&quot;&gt;\nhttp://i26.photobucket.com/albums/c119/manojb/vlcsnap-2013-02-05-14h46m29s72.png&lt;/a&gt; &lt;a href=&quot;\nhttp://i26.photobucket.com/albums/c119/manojb/vlcsnap-2013-02-05-14h46m41s199.png&quot; rel=&quot;nofollow&quot; target=&quot;_NEW&quot;&gt;\nhttp://i26.photobucket.com/albums/c119/manojb/vlcsnap-2013-02-05-14h46m41s199.png&lt;/a&gt; &lt;a href=&quot;\nhttp://i26.photobucket.com/albums/c119/manojb/vlcsnap-2013-02-05-14h46m56s86.png&quot; rel=&quot;nofollow&quot; target=&quot;_NEW&quot;&gt;\nhttp://i26.photobucket.com/albums/c119/manojb/vlcsnap-2013-02-05-14h46m56s86.png&lt;/a&gt; &lt;a href=&quot;\nhttp://i26.photobucket.com/albums/c119/manojb/vlcsnap-2013-02-05-14h47m19s64.png&quot; rel=&quot;nofollow&quot; target=&quot;_NEW&quot;&gt;\nhttp://i26.photobucket.com/albums/c119/manojb/vlcsnap-2013-02-05-14h47m19s64.png&lt;/a&gt; &lt;a href=&quot;\nhttp://i26.photobucket.com/albums/c119/manojb/vlcsnap-2013-02-05-14h47m29s165.png&quot; rel=&quot;nofollow&quot; target=&quot;_NEW&quot;&gt;\nhttp://i26.photobucket.com/albums/c119/manojb/vlcsnap-2013-02-05-14h47m29s165.png&lt;/a&gt;\n\nInfo - \nBal Ganesha - Animated Mythological Marathi Stories\n\nMedia Info - \nGeneral\nComplete name                  : Ganesh Katha.avi\nFormat                         : AVI\nFormat/Info                    : Audio Video Interleave\nFile size                      : 235 MiB\nDuration                       : 177h 47mn\nOverall bit rate               : 3 080 bps\n\nVideo\nID                             : 0\nFormat                         : MPEG-4 Visual\nFormat profile                 : Advanced Simple@L1\nFormat settings, BVOP          : 2\nFormat settings, QPel          : No\nFormat settings, GMC           : No warppoints\nFormat settings, Matrix        : Default (H.263)\nCodec ID                       : DIVX\nCodec ID/Info                  : Project Mayo\nCodec ID/Hint                  : DivX 4\nDuration                       : 38mn 17s\nBit rate                       : 748 Kbps\nWidth                          : 640 pixels\nHeight                         : 360 pixels\nDisplay aspect ratio           : 16:9\nFrame rate                     : 25.000 fps\nColor space                    : YUV\nChroma subsampling             : 4:2:0\nBit depth                      : 8 bits\nScan type                      : Progressive\nCompression mode               : Lossy\nBits/(Pixel*Frame)             : 0.130\nStream size                    : 205 MiB (87%)\nWriting library                : Lavc54.59.100\n\nAudio\nID                             : 1\nFormat                         : AAC\nFormat/Info                    : Advanced Audio Codec\nFormat profile                 : LC\nCodec ID                       : FF\nDuration                       : 177h 47mn\nSource duration                : 28mn 42s\nBit rate                       : 128 Kbps\nChannel(s)                     : 2 channels\nChannel positions              : Front: L R\nSampling rate                  : 44.1 KHz\nCompression mode               : Lossy\nStream size                    : 26.3 MiB (11%)\nAlignment                      : Split accross interleaves\nInterleave, duration           : 23 ms (0.58 video frame)\n\nRipper : Manojvb\n\nExtreme 24x7 Seeding\n\n\nEnjoy TMB Release!","torrent":{"xt":"urn:btih:dfac44cf9ec189cdd0154f434e75a79bfd728cce","amp;dn":"%5BMARATHI%5D+Ganesh+Katha+ESubs+-+Animation+-+Kids+%5BTMB%5D","amp;tr":["udp%3A%2F%2Ftracker.openbittorrent.com%3A80","udp%3A%2F%2Fopen.demonii.com%3A1337","udp%3A%2F%2Ftracker.coppersurfer.tk%3A6969","udp%3A%2F%2Fexodus.desync.com%3A6969"],"infoHash":"dfac44cf9ec189cdd0154f434e75a79bfd728cce","infoHashBuffer":{"type":"Buffer","data":[223,172,68,207,158,193,137,205,208,21,79,67,78,117,167,155,253,114,140,206]},"announce":[],"urlList":[]}}